<?xml version="1.0" encoding="utf-8"?>
<!-- Generator: Adobe Illustrator 22.0.1, SVG Export Plug-In . SVG Version: 6.00 Build 0)  -->
<svg version="1.1" id="Capa_1" xmlns="http://www.w3.org/2000/svg" xmlns:xlink="http://www.w3.org/1999/xlink" x="0px" y="0px"
	 width="194.6px" height="45px" viewBox="0 0 194.6 45" style="enable-background:new 0 0 194.6 45;" xml:space="preserve">
<style type="text/css">
	.st0{fill-rule:evenodd;clip-rule:evenodd;}
</style>
<g>
	<g>
		<g>
			<g>
				<polygon class="st0" points="38.6,43.9 1.1,43.9 1.1,1.2 38.6,1.2 38.6,9.5 14.5,9.5 14.5,16.8 36.9,16.8 36.9,25.1 14.5,25.1 
					14.5,35.6 38.6,35.6 				"/>
				<path d="M39.7,45H0V0.1h39.7v10.5H15.6v5.1H38v10.5H15.6v8.3h24.1V45z M2.2,42.8h35.2v-6H13.4V24h22.4v-6H13.4V8.4h24.1v-6H2.2
					V42.8z"/>
			</g>
			<g>
				<polygon class="st0" points="38.6,43.9 1.1,43.9 1.1,1.2 38.6,1.2 38.6,9.5 14.5,9.5 14.5,16.8 36.9,16.8 36.9,25.1 14.5,25.1 
					14.5,35.6 38.6,35.6 				"/>
				<path d="M39.7,45H0V0.1h39.7v10.5H15.6v5.1H38v10.5H15.6v8.3h24.1V45z M2.2,42.8h35.2v-6H13.4V24h22.4v-6H13.4V8.4h24.1v-6H2.2
					V42.8z"/>
			</g>
		</g>
	</g>
	<g>
		<g>
			<g>
				<polygon class="st0" points="93.2,43.9 80.3,43.9 58.3,14.6 58.3,43.9 46.1,43.9 46.1,1.2 62,1.2 80.9,25.7 80.9,1.2 93.2,1.2 
									"/>
				<path d="M94.3,45H79.7L59.4,18v27H44.9V0.1h17.6l17.2,22.3V0.1h14.5V45z M80.8,42.8H92V2.3H82v26.6L61.5,2.3H47.2v40.4h10V11.2
					L80.8,42.8z"/>
			</g>
			<g>
				<polygon class="st0" points="93.2,43.9 80.3,43.9 58.3,14.6 58.3,43.9 46.1,43.9 46.1,1.2 62,1.2 80.9,25.7 80.9,1.2 93.2,1.2 
									"/>
				<path d="M94.3,45H79.7L59.4,18v27H44.9V0.1h17.6l17.2,22.3V0.1h14.5V45z M80.8,42.8H92V2.3H82v26.6L61.5,2.3H47.2v40.4h10V11.2
					L80.8,42.8z"/>
			</g>
		</g>
	</g>
	<g>
		<g>
			<g>
				<polygon class="st0" points="142.5,43.9 99,43.9 99,35.8 124.8,9.5 100.3,9.5 100.3,1.2 141.1,1.2 141.1,9.4 115.3,35.6 
					142.5,35.6 				"/>
				<path d="M143.7,45H97.9v-9.6l24.3-24.8h-23V0.1h43.1v9.7L118,34.5h25.7V45z M100.1,42.8h41.3v-6h-28.8L140,8.9V2.3h-38.6v6h26.1
					l-27.4,27.9V42.8z"/>
			</g>
			<g>
				<polygon class="st0" points="142.5,43.9 99,43.9 99,35.8 124.8,9.5 100.3,9.5 100.3,1.2 141.1,1.2 141.1,9.4 115.3,35.6 
					142.5,35.6 				"/>
				<path d="M143.7,45H97.9v-9.6l24.3-24.8h-23V0.1h43.1v9.7L118,34.5h25.7V45z M100.1,42.8h41.3v-6h-28.8L140,8.9V2.3h-38.6v6h26.1
					l-27.4,27.9V42.8z"/>
			</g>
		</g>
	</g>
	<g>
		<g>
			<g>
				<path class="st0" d="M193.5,22.5c0,6.5-2.2,11.7-6.5,15.6c-4.3,3.9-10.3,5.8-17.8,5.8c-7.6,0-13.5-1.9-17.8-5.8
					c-4.3-3.9-6.5-9-6.5-15.6c0-6.6,2.2-11.8,6.5-15.6c4.3-3.8,10.2-5.7,17.8-5.7c7.6,0,13.5,1.9,17.8,5.7
					C191.3,10.7,193.5,15.9,193.5,22.5z M177.4,32.9c1.2-1.3,2.1-2.7,2.6-4.4c0.6-1.7,0.9-3.7,0.9-6c0-2.5-0.3-4.6-1-6.3
					c-0.7-1.7-1.5-3.1-2.6-4.2c-1.1-1.1-2.3-1.9-3.7-2.4c-1.4-0.5-2.9-0.7-4.4-0.7c-1.5,0-3,0.2-4.3,0.7c-1.4,0.5-2.6,1.3-3.7,2.4
					c-1.1,1-1.9,2.5-2.6,4.3c-0.7,1.8-1,3.9-1,6.3c0,2.4,0.3,4.5,1,6.2c0.6,1.7,1.5,3.1,2.5,4.2c1.1,1.1,2.3,1.9,3.7,2.4
					c1.4,0.5,2.9,0.8,4.5,0.8c1.6,0,3-0.3,4.5-0.8C175.1,34.8,176.3,34,177.4,32.9z"/>
				<path d="M169.2,45c-7.8,0-14.1-2-18.6-6.1c-4.5-4.1-6.8-9.6-6.8-16.4c0-6.9,2.3-12.4,6.8-16.5c4.5-4,10.7-6,18.6-6
					c7.8,0,14,2,18.6,6c4.6,4,6.9,9.6,6.9,16.5c0,6.8-2.3,12.4-6.8,16.4C183.3,43,177,45,169.2,45z M169.2,2.2
					c-7.3,0-13,1.8-17.1,5.5c-4,3.6-6.1,8.6-6.1,14.8c0,6.3,2,11.1,6.1,14.8c4.1,3.6,9.8,5.5,17.1,5.5c7.3,0,13-1.8,17.1-5.5
					c4-3.6,6.1-8.6,6.1-14.8c0-6.3-2-11.2-6.1-14.8C182.1,4.1,176.4,2.2,169.2,2.2z M169.2,37.3c-1.7,0-3.3-0.3-4.8-0.8
					c-1.6-0.6-3-1.5-4.1-2.7c-1.2-1.2-2.1-2.7-2.8-4.6c-0.7-1.8-1-4.1-1-6.6c0-2.5,0.4-4.8,1.1-6.7c0.7-2,1.7-3.5,2.8-4.7
					c1.3-1.2,2.7-2.1,4.2-2.6c1.5-0.5,3.1-0.8,4.7-0.8c1.6,0,3.2,0.3,4.8,0.8c1.6,0.6,3,1.5,4.1,2.7c1.2,1.2,2.1,2.7,2.8,4.6
					c0.7,1.8,1.1,4.1,1.1,6.7c0,2.4-0.3,4.5-0.9,6.4c-0.6,1.8-1.6,3.5-2.9,4.8l0,0c-1.2,1.2-2.6,2.1-4.1,2.7
					C172.5,37,170.9,37.3,169.2,37.3z M169.2,10c-1.4,0-2.7,0.2-4,0.7c-1.2,0.4-2.3,1.1-3.3,2.1c-0.9,0.9-1.7,2.2-2.3,3.8
					c-0.6,1.7-0.9,3.7-0.9,5.9c0,2.3,0.3,4.3,0.9,5.9c0.6,1.6,1.4,2.9,2.3,3.8c0.9,1,2,1.7,3.3,2.1c1.3,0.5,2.7,0.7,4.1,0.7
					c1.4,0,2.8-0.2,4.1-0.7c1.2-0.5,2.3-1.2,3.3-2.2c1.1-1.1,1.9-2.5,2.4-4c0.5-1.6,0.8-3.5,0.8-5.6c0-2.3-0.3-4.3-0.9-5.9
					c-0.6-1.6-1.4-2.9-2.3-3.8c-1-1-2.1-1.7-3.3-2.1C171.9,10.2,170.6,10,169.2,10z"/>
			</g>
			<g>
				<path class="st0" d="M193.5,22.5c0,6.5-2.2,11.7-6.5,15.6c-4.3,3.9-10.3,5.8-17.8,5.8c-7.6,0-13.5-1.9-17.8-5.8
					c-4.3-3.9-6.5-9-6.5-15.6c0-6.6,2.2-11.8,6.5-15.6c4.3-3.8,10.2-5.7,17.8-5.7c7.6,0,13.5,1.9,17.8,5.7
					C191.3,10.7,193.5,15.9,193.5,22.5z M177.4,32.9c1.2-1.3,2.1-2.7,2.6-4.4c0.6-1.7,0.9-3.7,0.9-6c0-2.5-0.3-4.6-1-6.3
					c-0.7-1.7-1.5-3.1-2.6-4.2c-1.1-1.1-2.3-1.9-3.7-2.4c-1.4-0.5-2.9-0.7-4.4-0.7c-1.5,0-3,0.2-4.3,0.7c-1.4,0.5-2.6,1.3-3.7,2.4
					c-1.1,1-1.9,2.5-2.6,4.3c-0.7,1.8-1,3.9-1,6.3c0,2.4,0.3,4.5,1,6.2c0.6,1.7,1.5,3.1,2.5,4.2c1.1,1.1,2.3,1.9,3.7,2.4
					c1.4,0.5,2.9,0.8,4.5,0.8c1.6,0,3-0.3,4.5-0.8C175.1,34.8,176.3,34,177.4,32.9z"/>
				<path d="M169.2,45c-7.8,0-14.1-2-18.6-6.1c-4.5-4.1-6.8-9.6-6.8-16.4c0-6.9,2.3-12.4,6.8-16.5c4.5-4,10.7-6,18.6-6
					c7.8,0,14,2,18.6,6c4.6,4,6.9,9.6,6.9,16.5c0,6.8-2.3,12.4-6.8,16.4C183.3,43,177,45,169.2,45z M169.2,2.2
					c-7.3,0-13,1.8-17.1,5.5c-4,3.6-6.1,8.6-6.1,14.8c0,6.3,2,11.1,6.1,14.8c4.1,3.6,9.8,5.5,17.1,5.5c7.3,0,13-1.8,17.1-5.5
					c4-3.6,6.1-8.6,6.1-14.8c0-6.3-2-11.2-6.1-14.8C182.1,4.1,176.4,2.2,169.2,2.2z M169.2,37.3c-1.7,0-3.3-0.3-4.8-0.8
					c-1.6-0.6-3-1.5-4.1-2.7c-1.2-1.2-2.1-2.7-2.8-4.6c-0.7-1.8-1-4.1-1-6.6c0-2.5,0.4-4.8,1.1-6.7c0.7-2,1.7-3.5,2.8-4.7
					c1.3-1.2,2.7-2.1,4.2-2.6c1.5-0.5,3.1-0.8,4.7-0.8c1.6,0,3.2,0.3,4.8,0.8c1.6,0.6,3,1.5,4.1,2.7c1.2,1.2,2.1,2.7,2.8,4.6
					c0.7,1.8,1.1,4.1,1.1,6.7c0,2.4-0.3,4.5-0.9,6.4c-0.6,1.8-1.6,3.5-2.9,4.8l0,0c-1.2,1.2-2.6,2.1-4.1,2.7
					C172.5,37,170.9,37.3,169.2,37.3z M169.2,10c-1.4,0-2.7,0.2-4,0.7c-1.2,0.4-2.3,1.1-3.3,2.1c-0.9,0.9-1.7,2.2-2.3,3.8
					c-0.6,1.7-0.9,3.7-0.9,5.9c0,2.3,0.3,4.3,0.9,5.9c0.6,1.6,1.4,2.9,2.3,3.8c0.9,1,2,1.7,3.3,2.1c1.3,0.5,2.7,0.7,4.1,0.7
					c1.4,0,2.8-0.2,4.1-0.7c1.2-0.5,2.3-1.2,3.3-2.2c1.1-1.1,1.9-2.5,2.4-4c0.5-1.6,0.8-3.5,0.8-5.6c0-2.3-0.3-4.3-0.9-5.9
					c-0.6-1.6-1.4-2.9-2.3-3.8c-1-1-2.1-1.7-3.3-2.1C171.9,10.2,170.6,10,169.2,10z"/>
			</g>
		</g>
	</g>
</g>
</svg>
